<svg id="Calque_1" data-name="Calque 1" xmlns="http://www.w3.org/2000/svg" viewBox="0 0 490.38 149.31"><defs><style>.cls-1{fill:#52b15a;}</style></defs><path class="cls-1" d="M250.39,223A74.66,74.66,0,1,0,325,297.64,74.66,74.66,0,0,0,250.39,223Zm7.05,139.58-.68-28.7a26.75,26.75,0,0,0,20.36-26l-3.44-50.27a5.19,5.19,0,0,0-5.49-4.78,5.13,5.13,0,0,0-4.78,5.45v0l3.41,49.57h-11.3v-50a5.15,5.15,0,0,0-10.3,0v50H233.93l3.41-49.57a5.15,5.15,0,0,0-10.27-.7l-3.43,49.92v.35a26.8,26.8,0,0,0,20.37,26l-.68,28.7a65.33,65.33,0,1,1,14.11,0Z" transform="translate(-175.73 -222.98)"/><path class="cls-1" d="M380.92,281.22H370v30.45h-4.48V281.22h-11v-3.68h26.39Z" transform="translate(-175.73 -222.98)"/><path class="cls-1" d="M389.64,289.38a9.21,9.21,0,0,1,7.5-3.54q8,0,8.11,9.07v16.76h-4.33V294.88a5.85,5.85,0,0,0-1.26-4.05,5,5,0,0,0-3.83-1.31,6.23,6.23,0,0,0-3.7,1.12,7.7,7.7,0,0,0-2.49,2.95v18.08h-4.33v-36h4.33Z" transform="translate(-175.73 -222.98)"/><path class="cls-1" d="M422.27,312.13a11.05,11.05,0,0,1-8.39-3.38,12.57,12.57,0,0,1-3.24-9.06v-.8a15.27,15.27,0,0,1,1.44-6.74,11.36,11.36,0,0,1,4-4.64,10.15,10.15,0,0,1,5.61-1.67,9.5,9.5,0,0,1,7.69,3.25q2.73,3.27,2.74,9.33v1.81H415a9,9,0,0,0,2.19,6.06,6.89,6.89,0,0,0,5.33,2.31,7.6,7.6,0,0,0,3.89-.94,9.7,9.7,0,0,0,2.79-2.49l2.65,2.07Q428.65,312.13,422.27,312.13Zm-.54-22.73a5.81,5.81,0,0,0-4.41,1.91,9.32,9.32,0,0,0-2.2,5.36h12.7v-.33a8.22,8.22,0,0,0-1.78-5.12A5.41,5.41,0,0,0,421.73,289.4Z" transform="translate(-175.73 -222.98)"/><path class="cls-1" d="M474.93,307.19a10.33,10.33,0,0,1-4.84,3.71,19.55,19.55,0,0,1-7.23,1.23,14,14,0,0,1-7.4-1.95,13,13,0,0,1-5-5.57,19.2,19.2,0,0,1-1.81-8.37v-3q0-7.71,3.59-12t10.12-4.24a13,13,0,0,1,8.6,2.73,11.87,11.87,0,0,1,4,7.75h-4.5q-1.26-6.8-8.06-6.8a8,8,0,0,0-6.86,3.18c-1.55,2.12-2.34,5.19-2.35,9.21v2.79c0,3.83.87,6.88,2.62,9.13a8.52,8.52,0,0,0,7.11,3.39,15.42,15.42,0,0,0,4.42-.56,6.81,6.81,0,0,0,3.15-1.89v-7.65h-7.9v-3.68h12.37Z" transform="translate(-175.73 -222.98)"/><path class="cls-1" d="M480.6,298.75a14.92,14.92,0,0,1,1.47-6.7,10.9,10.9,0,0,1,4.08-4.6,11.16,11.16,0,0,1,6-1.61,10.69,10.69,0,0,1,8.38,3.58q3.19,3.58,3.2,9.54v.31a15,15,0,0,1-1.42,6.64,10.69,10.69,0,0,1-4,4.58,11.19,11.19,0,0,1-6.06,1.64,10.68,10.68,0,0,1-8.36-3.58,13.75,13.75,0,0,1-3.2-9.49Zm4.36.52a10.87,10.87,0,0,0,2,6.77,6.63,6.63,0,0,0,10.49,0c1.3-1.73,1.94-4.15,1.94-7.26a10.84,10.84,0,0,0-2-6.76,6.59,6.59,0,0,0-10.44,0C485.62,293.66,485,296.09,485,299.27Z" transform="translate(-175.73 -222.98)"/><path class="cls-1" d="M508,298.75a15.05,15.05,0,0,1,1.46-6.7,11,11,0,0,1,4.08-4.6,11.17,11.17,0,0,1,6-1.61,10.71,10.71,0,0,1,8.38,3.58q3.2,3.58,3.19,9.54v.31a15.15,15.15,0,0,1-1.41,6.64,10.77,10.77,0,0,1-4.06,4.58,11.19,11.19,0,0,1-6.06,1.64,10.66,10.66,0,0,1-8.35-3.58,13.75,13.75,0,0,1-3.2-9.49Zm4.36.52a10.8,10.8,0,0,0,2,6.77,6.62,6.62,0,0,0,10.48,0q2-2.6,2-7.26a10.84,10.84,0,0,0-2-6.76,6.29,6.29,0,0,0-5.26-2.59,6.23,6.23,0,0,0-5.18,2.55C513,293.66,512.34,296.09,512.34,299.27Z" transform="translate(-175.73 -222.98)"/><path class="cls-1" d="M535.45,298.77q0-5.83,2.76-9.38a9.42,9.42,0,0,1,14.3-.51V275.67h4.34v36h-4l-.21-2.72a8.83,8.83,0,0,1-7.24,3.18,8.64,8.64,0,0,1-7.18-3.61,15,15,0,0,1-2.78-9.42Zm4.33.5a11.32,11.32,0,0,0,1.78,6.75,5.77,5.77,0,0,0,4.93,2.43,6.32,6.32,0,0,0,6-3.7V293.1a6.38,6.38,0,0,0-6-3.58,5.8,5.8,0,0,0-5,2.46C540.38,293.62,539.78,296.05,539.78,299.27Z" transform="translate(-175.73 -222.98)"/><path class="cls-1" d="M595,296.59H580.64v15.08h-4.5V277.54h21.14v3.68H580.64v11.7H595Z" transform="translate(-175.73 -222.98)"/><path class="cls-1" d="M600.35,298.75a14.92,14.92,0,0,1,1.46-6.7,11,11,0,0,1,4.08-4.6,11.16,11.16,0,0,1,6-1.61,10.68,10.68,0,0,1,8.38,3.58q3.21,3.58,3.2,9.54v.31a15,15,0,0,1-1.42,6.64,10.69,10.69,0,0,1-4,4.58,11.19,11.19,0,0,1-6.06,1.64,10.65,10.65,0,0,1-8.35-3.58q-3.21-3.58-3.2-9.49Zm4.36.52a10.86,10.86,0,0,0,1.95,6.77,6.63,6.63,0,0,0,10.49,0q2-2.6,2-7.26a10.84,10.84,0,0,0-2-6.76,6.6,6.6,0,0,0-10.45,0C605.36,293.66,604.71,296.09,604.71,299.27Z" transform="translate(-175.73 -222.98)"/><path class="cls-1" d="M641.13,290.2A13,13,0,0,0,639,290a5.7,5.7,0,0,0-5.78,3.64v18h-4.34V286.31h4.22l.07,2.93a6.75,6.75,0,0,1,6.05-3.4,4.42,4.42,0,0,1,1.92.33Z" transform="translate(-175.73 -222.98)"/><path class="cls-1" d="M652.19,299.92l-2.72,2.84v8.91h-4.33v-36h4.33v21.77l2.32-2.79,7.9-8.34H665L655.1,296.9l11,14.77H661Z" transform="translate(-175.73 -222.98)"/><path class="cls-1" d="M557.14,338.3h-4v6.9h-2.26V328.14h5.65a6.69,6.69,0,0,1,4.43,1.31,4.72,4.72,0,0,1,1.56,3.82,4.61,4.61,0,0,1-.86,2.78,5.19,5.19,0,0,1-2.4,1.77l4,7.24v.14h-2.42Zm-4-1.84h3.46a3.87,3.87,0,0,0,2.66-.87,2.93,2.93,0,0,0,1-2.32,3.08,3.08,0,0,0-.94-2.43,4,4,0,0,0-2.72-.86h-3.45Z" transform="translate(-175.73 -222.98)"/><path class="cls-1" d="M570.58,345.44a5.54,5.54,0,0,1-4.19-1.69,6.28,6.28,0,0,1-1.62-4.53v-.4a7.62,7.62,0,0,1,.72-3.37,5.63,5.63,0,0,1,2-2.32,5.08,5.08,0,0,1,2.81-.84,4.72,4.72,0,0,1,3.84,1.63,7,7,0,0,1,1.38,4.66v.91h-8.59a4.5,4.5,0,0,0,1.09,3,3.48,3.48,0,0,0,2.67,1.15,3.79,3.79,0,0,0,1.94-.47A5,5,0,0,0,574,342l1.32,1A5.32,5.32,0,0,1,570.58,345.44Zm-.27-11.37a2.88,2.88,0,0,0-2.2,1,4.58,4.58,0,0,0-1.1,2.67h6.35v-.16a4.13,4.13,0,0,0-.89-2.56A2.71,2.71,0,0,0,570.31,334.07Z" transform="translate(-175.73 -222.98)"/><path class="cls-1" d="M585.42,341.84a1.57,1.57,0,0,0-.67-1.36,6.17,6.17,0,0,0-2.3-.84,11.18,11.18,0,0,1-2.62-.85,3.63,3.63,0,0,1-1.43-1.17,2.77,2.77,0,0,1-.46-1.61,3.29,3.29,0,0,1,1.32-2.64,5.14,5.14,0,0,1,3.37-1.08,5.34,5.34,0,0,1,3.5,1.11,3.57,3.57,0,0,1,1.34,2.85h-2.18a1.94,1.94,0,0,0-.76-1.53,2.83,2.83,0,0,0-1.9-.65,2.91,2.91,0,0,0-1.85.52,1.61,1.61,0,0,0-.67,1.35,1.3,1.3,0,0,0,.62,1.18,7.7,7.7,0,0,0,2.24.76,11.21,11.21,0,0,1,2.63.87,3.81,3.81,0,0,1,1.5,1.21,3,3,0,0,1,.48,1.73,3.24,3.24,0,0,1-1.35,2.72,5.69,5.69,0,0,1-3.53,1,6.38,6.38,0,0,1-2.7-.54,4.34,4.34,0,0,1-1.83-1.51,3.62,3.62,0,0,1-.66-2.09h2.16a2.24,2.24,0,0,0,.88,1.73,3.36,3.36,0,0,0,2.15.64,3.48,3.48,0,0,0,2-.5A1.52,1.52,0,0,0,585.42,341.84Z" transform="translate(-175.73 -222.98)"/><path class="cls-1" d="M593.35,329.45v3.07h2.37v1.68h-2.37v7.87a1.79,1.79,0,0,0,.32,1.15,1.34,1.34,0,0,0,1.07.38,5.64,5.64,0,0,0,1-.14v1.75a6.58,6.58,0,0,1-1.67.23,2.68,2.68,0,0,1-2.19-.88,3.8,3.8,0,0,1-.74-2.5V334.2h-2.31v-1.68h2.31v-3.07Z" transform="translate(-175.73 -222.98)"/><path class="cls-1" d="M606.08,345.2a4.37,4.37,0,0,1-.31-1.33,4.83,4.83,0,0,1-3.61,1.57,4.44,4.44,0,0,1-3.07-1.06,3.45,3.45,0,0,1-1.2-2.69,3.6,3.6,0,0,1,1.5-3.08,7.13,7.13,0,0,1,4.24-1.09h2.11v-1a2.44,2.44,0,0,0-.68-1.81,2.74,2.74,0,0,0-2-.67,3.15,3.15,0,0,0-1.94.58,1.72,1.72,0,0,0-.79,1.42h-2.18a3,3,0,0,1,.68-1.83,4.57,4.57,0,0,1,1.83-1.4,6,6,0,0,1,2.53-.52,5,5,0,0,1,3.44,1.1,4,4,0,0,1,1.28,3v5.84a7.1,7.1,0,0,0,.45,2.78v.18Zm-3.6-1.65a3.72,3.72,0,0,0,1.93-.53,3.19,3.19,0,0,0,1.33-1.37v-2.6H604q-4,0-4,2.33a2,2,0,0,0,.68,1.6A2.65,2.65,0,0,0,602.48,343.55Z" transform="translate(-175.73 -222.98)"/><path class="cls-1" d="M619.13,344a4.6,4.6,0,0,1-3.71,1.49,3.92,3.92,0,0,1-3.09-1.18,5,5,0,0,1-1.07-3.49v-8.25h2.16v8.2c0,1.92.79,2.88,2.35,2.88a3.24,3.24,0,0,0,3.3-1.85v-9.23h2.17V345.2h-2.06Z" transform="translate(-175.73 -222.98)"/><path class="cls-1" d="M630.66,334.47a7,7,0,0,0-1.06-.08,2.86,2.86,0,0,0-2.9,1.81v9h-2.17V332.52h2.11l0,1.47a3.38,3.38,0,0,1,3-1.7,2.38,2.38,0,0,1,1,.16Z" transform="translate(-175.73 -222.98)"/><path class="cls-1" d="M640,345.2a4.78,4.78,0,0,1-.3-1.33,4.83,4.83,0,0,1-3.61,1.57,4.47,4.47,0,0,1-3.08-1.06,3.45,3.45,0,0,1-1.2-2.69,3.58,3.58,0,0,1,1.51-3.08,7.08,7.08,0,0,1,4.23-1.09h2.11v-1a2.41,2.41,0,0,0-.68-1.81,2.72,2.72,0,0,0-2-.67,3.15,3.15,0,0,0-1.94.58,1.72,1.72,0,0,0-.79,1.42h-2.18a3,3,0,0,1,.67-1.83,4.57,4.57,0,0,1,1.83-1.4,6.07,6.07,0,0,1,2.54-.52,5,5,0,0,1,3.43,1.1,3.93,3.93,0,0,1,1.29,3v5.84a7.1,7.1,0,0,0,.45,2.78v.18Zm-3.59-1.65a3.72,3.72,0,0,0,1.93-.53,3.11,3.11,0,0,0,1.32-1.37v-2.6H638q-4,0-4,2.33a2,2,0,0,0,.68,1.6A2.63,2.63,0,0,0,636.42,343.55Z" transform="translate(-175.73 -222.98)"/><path class="cls-1" d="M647.29,332.52l.07,1.6a4.63,4.63,0,0,1,3.8-1.83q4,0,4.05,4.54v8.37h-2.16v-8.39a2.9,2.9,0,0,0-.63-2,2.51,2.51,0,0,0-1.92-.66,3.16,3.16,0,0,0-1.85.56,3.9,3.9,0,0,0-1.24,1.48v9h-2.17V332.52Z" transform="translate(-175.73 -222.98)"/><path class="cls-1" d="M661.42,329.45v3.07h2.37v1.68h-2.37v7.87a1.79,1.79,0,0,0,.32,1.15,1.35,1.35,0,0,0,1.08.38,5.56,5.56,0,0,0,1-.14v1.75a6.5,6.5,0,0,1-1.66.23,2.72,2.72,0,0,1-2.2-.88,3.8,3.8,0,0,1-.73-2.5V334.2H657v-1.68h2.31v-3.07Z" transform="translate(-175.73 -222.98)"/></svg>